<svg width="145.000000" height="50.000000" viewBox="0 0 145 50" fill="none" xmlns="http://www.w3.org/2000/svg" xmlns:xlink="http://www.w3.org/1999/xlink">
	<desc>
			Created with Pixso.
	</desc>
	<defs/>
	<path id="finpoint" d="M4.63 25.76L4.63 40L10.76 40L10.76 25.76L17.36 25.76L17.36 40L23.47 40L23.47 20.55L10.76 20.55L10.76 18.16Q10.76 17.2 11.23 16.63Q11.25 16.6 11.27 16.58Q11.35 16.49 11.45 16.41Q11.95 15.99 12.8 15.99Q13.24 15.99 13.62 16.12Q14 16.24 14.4 16.52L17.44 12.04Q16.39 11.24 15.27 10.87Q14.16 10.51 12.8 10.51Q10.28 10.51 8.45 11.58Q7.44 12.16 6.68 12.98Q6.08 13.64 5.63 14.44Q5.46 14.75 5.32 15.07Q4.63 16.62 4.63 18.47L4.63 20.55L0.36 20.55L0.36 25.76L4.63 25.76ZM98.99 17.52Q99.68 17.88 100.56 17.88Q101.43 17.88 102.11 17.51Q102.55 17.28 102.91 16.9Q103.31 16.47 103.54 15.97Q103.83 15.31 103.83 14.52Q103.83 13.57 103.44 12.84Q103.23 12.45 102.91 12.11Q102.57 11.76 102.16 11.53Q101.46 11.16 100.56 11.16Q99.66 11.16 98.95 11.53Q98.53 11.76 98.18 12.11Q97.83 12.47 97.61 12.89Q97.24 13.6 97.24 14.52Q97.24 15.28 97.52 15.92Q97.75 16.45 98.18 16.9Q98.55 17.28 98.99 17.52ZM133.32 25.76L133.32 40L139.43 40L139.43 25.76L143.83 25.76L143.83 20.55L139.43 20.55L139.43 12.51L133.32 12.51L133.32 20.55L128.91 20.55L128.91 25.76L133.32 25.76ZM19.05 18.86Q19.67 19.16 20.43 19.16Q21.31 19.16 21.99 18.78Q22.38 18.56 22.71 18.22Q23.08 17.82 23.3 17.35Q23.6 16.7 23.6 15.91Q23.6 15.09 23.27 14.43Q23.06 14 22.71 13.64Q22.4 13.32 22.03 13.11Q21.34 12.72 20.43 12.72Q19.64 12.72 19 13.03Q18.55 13.26 18.17 13.64Q17.81 14.01 17.59 14.45Q17.27 15.1 17.27 15.91Q17.27 16.69 17.56 17.33Q17.78 17.81 18.17 18.22Q18.56 18.63 19.05 18.86ZM79.23 39.52Q81.31 40.43 83.8 40.43Q86.49 40.43 88.68 39.38Q88.96 39.25 89.23 39.1Q90.56 38.36 91.58 37.32Q92.4 36.47 93.03 35.43Q93.46 34.71 93.76 33.94Q94.43 32.22 94.43 30.24Q94.43 28.14 93.69 26.36Q93.41 25.69 93.03 25.06Q92.42 24.05 91.61 23.24Q90.58 22.18 89.23 21.44Q88.98 21.31 88.73 21.18Q86.53 20.11 83.8 20.11Q81.12 20.11 78.94 21.16Q78.64 21.3 78.35 21.46Q76.95 22.24 75.89 23.35Q75.14 24.13 74.55 25.08Q74.21 25.65 73.95 26.24Q73.15 28.07 73.15 30.24Q73.15 32.24 73.83 33.98Q74.13 34.73 74.55 35.43Q75.17 36.46 75.99 37.3Q77.02 38.35 78.37 39.1Q78.79 39.33 79.23 39.52ZM40.59 28.91L40.59 40L46.72 40L46.72 27.55Q46.72 26.31 46.35 25.19Q46.12 24.51 45.75 23.87Q45.3 23.08 44.69 22.43Q44.01 21.71 43.13 21.18Q42.85 21 42.55 20.85Q41.1 20.15 39.32 20.15Q37.27 20.15 35.6 20.94Q35.45 21.02 35.29 21.1Q34.51 21.51 33.88 22.08L33.88 20.55L27.75 20.55L27.75 40L33.88 40L33.88 28.91Q33.88 28.02 34.23 27.3Q34.27 27.22 34.32 27.13Q34.58 26.66 34.96 26.33Q35.21 26.1 35.52 25.93Q36.28 25.51 37.27 25.51Q38.17 25.51 38.87 25.88Q39.3 26.1 39.65 26.46Q39.92 26.73 40.12 27.05Q40.59 27.84 40.59 28.91ZM58.48 39.74Q60.02 40.4 61.83 40.4Q64.08 40.4 65.91 39.53Q66.33 39.33 66.74 39.08Q67.59 38.55 68.3 37.87Q69.36 36.85 70.1 35.48Q70.12 35.44 70.15 35.39Q71.32 33.14 71.32 30.28Q71.32 27.39 70.13 25.14Q70.11 25.11 70.1 25.08Q69.35 23.68 68.26 22.65Q67.57 21.99 66.74 21.48Q66.31 21.22 65.86 21Q64.05 20.15 61.83 20.15Q60.17 20.15 58.73 20.73Q58.48 20.83 58.23 20.95Q57.42 21.35 56.76 21.89L56.76 20.55L50.63 20.55L50.63 48.2L56.68 48.2L56.68 38.68Q57.37 39.24 58.23 39.63Q58.35 39.69 58.48 39.74ZM120.76 28.91L120.76 40L126.88 40L126.88 27.55Q126.88 26.31 126.51 25.19Q126.28 24.51 125.91 23.87Q125.46 23.08 124.85 22.43Q124.17 21.71 123.29 21.18Q123.01 21 122.71 20.85Q121.26 20.15 119.48 20.15Q117.43 20.15 115.76 20.94Q115.61 21.02 115.45 21.1Q114.67 21.51 114.04 22.08L114.04 20.55L107.91 20.55L107.91 40L114.04 40L114.04 28.91Q114.04 28.02 114.39 27.3Q114.43 27.22 114.48 27.13Q114.74 26.66 115.12 26.33Q115.37 26.1 115.68 25.93Q116.44 25.51 117.44 25.51Q118.33 25.51 119.03 25.88Q119.46 26.1 119.81 26.46Q120.08 26.73 120.28 27.05Q120.76 27.84 120.76 28.91ZM97.47 20.55L97.47 40L103.6 40L103.6 20.55L97.47 20.55ZM62.97 34.31Q62.01 34.88 60.71 34.88Q59.81 34.88 59.03 34.56Q58.74 34.44 58.48 34.28Q57.99 33.99 57.61 33.59Q57.21 33.17 56.93 32.64Q56.93 32.63 56.92 32.63Q56.39 31.59 56.39 30.28Q56.39 28.91 56.95 27.88Q57.33 27.18 57.88 26.7Q58.17 26.45 58.49 26.25Q58.58 26.21 58.66 26.16Q59.58 25.68 60.75 25.68Q61.96 25.68 62.89 26.19Q62.96 26.22 63.02 26.25Q63.36 26.46 63.65 26.72Q64.19 27.2 64.55 27.88Q65.12 28.91 65.12 30.28Q65.12 31.48 64.65 32.45Q64.6 32.55 64.55 32.64Q64.22 33.25 63.75 33.71Q63.42 34.03 63.02 34.28Q62.99 34.3 62.97 34.31ZM86.06 34.33Q85.08 34.88 83.8 34.88Q82.7 34.88 81.8 34.45Q81.65 34.38 81.51 34.3Q81.14 34.08 80.82 33.79Q80.3 33.32 79.95 32.66Q79.89 32.55 79.84 32.43Q79.39 31.46 79.39 30.28Q79.39 28.91 79.95 27.88Q80.3 27.24 80.8 26.78Q81.12 26.48 81.51 26.25Q81.65 26.17 81.8 26.1Q82.7 25.68 83.8 25.68Q85.12 25.68 86.09 26.25Q86.51 26.5 86.86 26.83Q87.32 27.27 87.64 27.86Q88.19 28.87 88.19 30.24Q88.19 31.6 87.66 32.66Q87.36 33.24 86.92 33.68Q86.56 34.04 86.11 34.3Q86.09 34.32 86.06 34.33Z" fill="#2E2E2E" fill-opacity="1.000000" fill-rule="evenodd"/>
	<circle id="Ellipse 63" cx="76.000000" cy="14.000000" r="4.000000" fill="#216F66" fill-opacity="1.000000"/>
	<circle id="Ellipse 64" cx="88.000000" cy="8.000000" r="3.000000" fill="#216F66" fill-opacity="1.000000"/>
</svg>
